<?xml version="1.0" standalone="no"?>
<!DOCTYPE svg PUBLIC "-//W3C//DTD SVG 20010904//EN"
 "http://www.w3.org/TR/2001/REC-SVG-20010904/DTD/svg10.dtd">
<svg version="1.0" xmlns="http://www.w3.org/2000/svg"
 width="512.000000pt" height="512.000000pt" viewBox="0 0 512.000000 512.000000"
 preserveAspectRatio="xMidYMid meet">

<g transform="translate(0.000000,512.000000) scale(0.100000,-0.100000)"
fill="#000000" stroke="none">
<path d="M4820 5071 c-49 -16 -86 -40 -142 -93 -31 -29 -474 -501 -984 -1048
-509 -547 -941 -1010 -959 -1028 l-32 -34 -424 235 c-233 129 -490 271 -570
316 -174 97 -227 112 -313 87 -42 -12 -70 -29 -105 -64 -67 -65 -86 -134 -57
-214 18 -51 1355 -1857 1412 -1907 193 -169 381 -87 592 260 22 37 97 174 166
304 70 130 139 256 155 278 15 23 330 565 699 1203 369 639 690 1193 713 1230
150 245 152 381 6 456 -44 22 -120 31 -157 19z m83 -92 c33 -15 57 -69 57
-129 0 -50 -37 -121 -300 -570 -37 -63 -78 -134 -91 -157 -62 -111 -227 -395
-265 -458 -23 -38 -50 -86 -61 -105 -10 -19 -37 -66 -59 -105 -171 -293 -369
-635 -567 -980 -44 -77 -101 -176 -127 -220 -87 -146 -386 -669 -411 -718 -58
-115 -139 -191 -214 -202 -33 -5 -48 -1 -83 22 -43 28 -78 72 -298 369 -300
407 -378 512 -513 694 -80 107 -159 214 -176 237 -36 50 -134 184 -284 388
-61 83 -115 151 -120 153 -6 2 -17 26 -27 54 -31 94 3 168 79 168 37 0 190
-79 617 -320 47 -26 112 -63 145 -81 205 -112 261 -143 359 -198 68 -38 121
-61 140 -61 36 0 -3 -38 533 535 388 415 665 711 928 990 94 100 244 264 335
364 171 189 332 341 362 341 9 0 28 -5 41 -11z"/>
<path d="M2263 5055 c-291 -37 -568 -123 -823 -256 -769 -402 -1307 -1191
-1400 -2056 -18 -163 -8 -495 19 -648 117 -662 507 -1235 1122 -1646 127 -85
388 -215 526 -263 548 -188 1127 -176 1693 36 809 302 1432 975 1635 1763 110
427 93 864 -51 1298 -33 100 -39 110 -77 135 -33 22 -54 28 -116 30 -70 4 -81
1 -141 -30 -128 -65 -141 -161 -64 -463 l45 -180 -4 -255 c-4 -227 -8 -269
-31 -377 -71 -333 -223 -654 -433 -913 -84 -103 -280 -293 -385 -371 -396
-295 -851 -432 -1322 -399 -171 12 -241 22 -381 55 -511 121 -972 468 -1252
943 -285 484 -385 1056 -278 1590 62 305 208 615 402 854 92 113 282 288 419
385 272 195 495 289 810 344 104 18 167 22 329 23 222 0 344 -14 555 -65 154
-36 192 -48 353 -111 124 -48 129 -49 180 -38 150 32 229 130 198 247 -14 50
-72 118 -123 144 -58 30 -346 125 -478 159 -212 54 -345 71 -590 75 -157 3
-259 0 -337 -10z m572 -70 c379 -56 685 -157 798 -263 34 -32 57 -73 57 -102
0 -37 -31 -90 -63 -107 -44 -22 -97 -12 -223 46 -210 96 -487 150 -804 158
-186 5 -235 3 -362 -16 -248 -36 -430 -92 -643 -198 -582 -290 -1012 -856
-1165 -1534 -50 -222 -65 -536 -35 -762 105 -802 647 -1421 1499 -1712 900
-307 1957 90 2523 947 338 513 437 1147 263 1688 -17 51 -30 108 -30 127 0 70
46 133 97 133 13 0 40 -15 61 -34 41 -37 71 -115 112 -291 53 -228 74 -540 51
-757 -114 -1052 -935 -1947 -1979 -2157 -275 -56 -621 -54 -892 4 -385 82
-792 291 -1127 579 -664 571 -945 1448 -752 2344 139 642 517 1210 1039 1560
134 90 372 205 527 255 175 57 375 97 558 111 95 7 390 -4 490 -19z"/>
</g>
</svg>
