<?xml version="1.0" standalone="no"?>
<!DOCTYPE svg PUBLIC "-//W3C//DTD SVG 20010904//EN"
 "http://www.w3.org/TR/2001/REC-SVG-20010904/DTD/svg10.dtd">
<svg version="1.0" xmlns="http://www.w3.org/2000/svg"
 width="512.000000pt" height="512.000000pt" viewBox="0 0 512.000000 512.000000"
 preserveAspectRatio="xMidYMid meet">

<g transform="translate(0.000000,512.000000) scale(0.100000,-0.100000)"
fill="#000000" stroke="none">
<path d="M2100 4814 c-170 -44 -325 -169 -435 -349 l-42 -70 -185 -16 c-102
-10 -223 -25 -269 -34 -247 -51 -484 -165 -595 -288 -66 -73 -139 -184 -158
-240 -52 -153 17 -294 168 -343 28 -9 52 -18 54 -19 1 -1 -5 -76 -13 -166 -29
-320 -39 -752 -26 -1138 26 -776 58 -1037 151 -1238 110 -238 328 -402 656
-496 353 -102 939 -149 1429 -117 302 20 718 85 841 131 101 38 144 98 123
172 -17 62 -108 127 -177 127 -16 0 -32 3 -35 7 -4 3 13 28 38 54 91 98 163
241 186 373 17 97 6 1095 -15 1396 -22 313 -44 564 -66 774 -11 99 -20 183
-20 187 0 4 26 10 58 14 91 9 130 24 173 62 48 43 67 77 78 140 13 65 -6 128
-62 206 -98 138 -244 241 -428 303 -111 38 -374 93 -569 119 l-125 17 -40 70
c-160 281 -443 428 -695 362z m320 -136 c41 -20 101 -60 133 -88 57 -52 154
-176 144 -186 -2 -3 -119 0 -258 7 -178 8 -318 8 -469 2 -118 -6 -216 -9 -217
-8 -1 0 13 23 31 51 73 108 196 206 310 246 39 14 74 18 151 15 91 -2 106 -6
175 -39z m230 -392 c590 -60 794 -101 982 -198 135 -70 288 -235 288 -312 0
-45 -31 -97 -71 -117 -54 -28 -803 -41 -2119 -37 -1076 3 -1116 4 -1143 22
-65 44 -75 125 -27 215 83 155 233 263 470 339 169 54 323 75 740 102 195 12
698 4 880 -14z m984 -1051 c61 -617 79 -972 80 -1560 1 -524 1 -523 -66 -665
-34 -70 -57 -100 -132 -176 -80 -80 -105 -98 -196 -142 -149 -72 -228 -88
-595 -124 -173 -17 -734 -17 -895 0 -214 22 -390 52 -476 81 -241 81 -420 264
-479 489 -17 67 -51 657 -64 1118 -12 409 9 952 45 1149 l5 30 922 0 c589 1
1009 5 1162 13 246 13 528 36 606 51 24 4 47 5 50 2 4 -3 19 -123 33 -266z"/>
<path d="M1516 3298 c-52 -14 -119 -84 -141 -145 -42 -123 -47 -223 -52 -1008
-2 -412 0 -823 5 -912 8 -155 10 -165 38 -210 103 -166 276 -104 323 115 7 36
11 271 11 745 0 381 5 816 12 967 10 249 10 280 -5 331 -18 61 -70 119 -107
119 -10 0 -24 2 -32 4 -7 2 -31 -1 -52 -6z m79 -121 c24 -37 28 -105 15 -253
-8 -94 -13 -404 -15 -949 -2 -733 -4 -814 -19 -855 -18 -47 -52 -90 -71 -90
-20 0 -53 44 -64 86 -15 55 -16 1614 -1 1776 16 189 36 260 82 292 31 22 55
20 73 -7z"/>
<path d="M3065 3270 c-43 -14 -102 -66 -126 -112 -60 -119 -71 -326 -67 -1298
l3 -785 23 -50 c39 -84 90 -125 157 -125 73 0 128 51 168 156 22 59 22 66 30
949 5 490 9 946 10 1015 2 117 0 128 -23 169 -14 24 -36 52 -50 62 -31 22 -86
31 -125 19z m80 -124 c21 -32 22 -108 7 -441 -9 -182 -13 -502 -11 -915 2
-466 0 -646 -9 -675 -15 -50 -47 -104 -68 -112 -22 -8 -63 34 -75 81 -16 56
-16 1671 -1 1812 18 160 30 204 67 241 39 39 69 42 90 9z"/>
<path d="M2316 3255 c-89 -32 -142 -118 -166 -265 -27 -176 -36 -824 -22
-1590 l7 -345 28 -58 c84 -169 255 -134 319 65 20 61 21 90 23 888 1 554 6
866 14 950 23 234 -17 342 -134 364 -16 3 -47 -1 -69 -9z m91 -132 c12 -31 14
-60 8 -158 -4 -66 -10 -509 -13 -985 l-7 -865 -23 -50 c-39 -87 -81 -93 -118
-18 -18 36 -19 78 -22 803 -5 1007 8 1208 80 1280 42 43 75 40 95 -7z"/>
<path d="M4066 4632 c-8 -16 -51 -120 -96 -231 -77 -194 -80 -204 -65 -227 15
-24 48 -31 72 -16 16 10 183 425 183 455 0 53 -69 67 -94 19z"/>
<path d="M4328 4144 c-171 -119 -208 -149 -208 -169 0 -29 24 -55 52 -55 18 0
351 224 406 273 40 37 22 97 -30 97 -7 0 -106 -66 -220 -146z"/>
<path d="M4169 3712 c-25 -17 -25 -68 -1 -81 16 -9 430 -51 497 -51 46 0 74
62 41 89 -11 9 -217 32 -479 54 -21 1 -47 -3 -58 -11z"/>
</g>
</svg>
