<?xml version="1.0" standalone="no"?>
<!DOCTYPE svg PUBLIC "-//W3C//DTD SVG 20010904//EN"
 "http://www.w3.org/TR/2001/REC-SVG-20010904/DTD/svg10.dtd">
<svg version="1.0" xmlns="http://www.w3.org/2000/svg"
 width="512.000000pt" height="512.000000pt" viewBox="0 0 512.000000 512.000000"
 preserveAspectRatio="xMidYMid meet">

<g transform="translate(0.000000,512.000000) scale(0.100000,-0.100000)"
fill="#000000" stroke="none">
<path d="M4443 4709 c-23 -4 -56 -15 -75 -25 -18 -9 -242 -170 -497 -356 -255
-187 -467 -336 -471 -331 -10 10 -180 597 -180 621 0 10 -7 28 -16 40 -20 29
-40 29 -396 -3 -808 -73 -1431 -166 -2268 -338 -172 -36 -151 -21 -207 -142
-50 -107 -47 -131 66 -655 249 -1155 431 -2082 556 -2835 20 -120 41 -228 47
-238 15 -29 66 -46 102 -35 17 5 88 20 158 33 570 109 1162 183 2222 277 348
30 369 33 383 54 12 19 9 49 -26 260 -22 131 -39 239 -38 239 1 1 64 11 141
23 76 13 143 25 147 28 13 8 49 85 49 104 0 17 -178 634 -416 1444 -74 252
-133 460 -132 462 2 2 265 194 584 427 l579 424 33 64 c32 61 34 68 30 149 -4
67 -10 96 -31 136 -61 121 -213 197 -344 173z m-1233 -465 c92 -319 93 -325
74 -343 -10 -10 -143 -109 -295 -219 l-276 -201 -75 -183 c-42 -101 -88 -222
-103 -270 -26 -83 -26 -89 -11 -113 9 -14 26 -25 37 -25 27 0 399 67 479 87
88 22 98 27 286 165 91 66 166 119 168 117 4 -4 305 -1029 454 -1544 l70 -240
-27 -7 c-14 -4 -276 -53 -581 -108 -1012 -184 -1420 -272 -1816 -393 l-111
-34 -93 351 c-232 883 -714 2460 -863 2826 l-35 85 161 33 c832 168 1336 241
2302 331 50 5 106 9 125 10 l36 1 94 -326z m1092 170 c20 -13 39 -28 42 -33
13 -21 -359 -306 -953 -731 l-382 -273 -27 25 c-15 14 -44 35 -66 45 l-38 20
672 492 c540 394 677 490 694 485 12 -4 37 -17 58 -30z m147 -167 c28 -58 34
-98 19 -124 -13 -22 -1279 -953 -1297 -953 -5 0 -12 15 -15 33 -3 18 -19 48
-34 67 l-28 33 335 240 c398 284 854 625 931 696 30 27 58 50 62 51 3 0 16
-19 27 -43z m-1582 -896 c29 -14 48 -31 62 -59 14 -28 34 -46 65 -61 46 -23
66 -56 66 -111 0 -26 -3 -28 -100 -49 -56 -11 -107 -21 -114 -21 -7 0 -28 21
-46 48 -18 26 -45 59 -58 74 l-26 28 35 85 c38 95 44 98 116 66z m-1961 -751
c53 -173 179 -621 280 -995 218 -800 210 -772 230 -803 21 -32 23 -32 414 62
718 171 1794 394 1848 384 13 -3 23 -41 48 -193 17 -105 30 -193 28 -196 -2
-3 -45 -9 -96 -13 -177 -13 -864 -77 -1088 -102 -491 -54 -895 -111 -1235
-174 -87 -16 -161 -27 -163 -26 -2 2 -34 222 -72 488 -95 671 -190 1274 -275
1743 -24 132 -29 174 -19 150 2 -5 47 -152 100 -325z"/>
<path d="M1616 3926 c-577 -127 -586 -130 -586 -176 0 -20 31 -50 52 -50 24 0
1120 239 1145 250 52 22 31 101 -26 99 -14 0 -278 -56 -585 -123z"/>
<path d="M1665 3119 c-297 -59 -541 -108 -542 -108 -2 -1 -10 -12 -19 -26 -15
-23 -15 -27 0 -50 11 -16 26 -25 43 -25 58 0 1098 212 1116 227 34 32 8 95
-39 92 -10 -1 -262 -50 -559 -110z"/>
<path d="M2261 2359 c-470 -105 -861 -195 -868 -201 -18 -14 -16 -63 2 -78 8
-7 25 -12 38 -12 39 0 1710 372 1724 383 21 18 16 66 -9 83 -12 9 -25 16 -28
15 -3 0 -390 -86 -859 -190z"/>
<path d="M2440 1879 c-48 -20 -276 -80 -394 -104 -118 -24 -156 -42 -156 -75
0 -9 9 -25 20 -35 19 -17 28 -18 100 -7 160 23 495 118 512 145 13 21 9 53
-10 70 -21 19 -36 20 -72 6z"/>
</g>
</svg>
