<?xml version="1.0" standalone="no"?>
<!DOCTYPE svg PUBLIC "-//W3C//DTD SVG 20010904//EN"
 "http://www.w3.org/TR/2001/REC-SVG-20010904/DTD/svg10.dtd">
<svg version="1.0" xmlns="http://www.w3.org/2000/svg"
 width="1382.000000pt" height="1018.000000pt" viewBox="0 0 1382.000000 1018.000000"
 preserveAspectRatio="xMidYMid meet">

<g transform="translate(0.000000,1018.000000) scale(0.100000,-0.100000)"
fill="#000000" stroke="none">
<path d="M8860 9674 c-335 -71 -660 -331 -810 -646 -71 -149 -92 -241 -97
-423 l-4 -160 53 130 c30 72 74 162 98 202 131 209 322 372 531 453 99 38 177
50 324 50 155 0 240 -13 334 -51 222 -89 395 -254 485 -464 63 -147 79 -221
79 -380 1 -127 -2 -148 -27 -225 -77 -233 -213 -394 -428 -509 -243 -130 -524
-145 -783 -42 -296 118 -528 378 -639 719 -10 28 -20 52 -23 52 -3 0 -3 -71 0
-157 6 -192 25 -272 102 -428 64 -131 126 -214 232 -316 171 -163 418 -290
640 -329 90 -16 389 -7 485 14 82 18 303 124 413 198 100 66 237 202 302 299
98 144 144 255 192 459 39 162 49 183 88 170 72 -24 358 -69 633 -100 402 -45
882 -34 1250 31 190 33 525 124 630 170 l45 20 -26 14 c-89 47 -336 119 -564
164 -186 37 -348 57 -576 73 -354 24 -968 -27 -1316 -109 -62 -15 -115 -24
-119 -21 -3 3 -21 71 -40 150 -71 296 -158 460 -343 647 -102 103 -212 183
-347 250 -132 66 -200 87 -316 100 -134 15 -378 13 -458 -5z"/>
<path d="M4115 8673 c-544 -5 -1854 -59 -2250 -94 -262 -22 -983 -121 -1102
-151 -24 -6 -41 -14 -38 -18 34 -55 1582 -201 2535 -240 491 -20 1705 -10
2475 20 716 28 1039 55 1590 131 374 51 554 84 538 99 -17 17 -373 66 -853
119 -772 85 -1328 118 -2105 127 -253 2 -480 6 -505 7 -25 1 -153 1 -285 0z"/>
<path d="M5280 6515 c-334 -76 -595 -240 -786 -494 -123 -165 -188 -328 -234
-588 -26 -145 -4 -135 -212 -98 -358 63 -838 91 -1428 82 -506 -8 -822 -30
-1115 -78 -425 -70 -790 -157 -850 -204 -26 -20 -14 -28 90 -60 308 -94 1244
-188 1700 -171 623 24 1203 91 1614 185 74 17 145 31 157 31 32 0 44 -21 54
-92 21 -149 100 -360 182 -486 94 -145 315 -338 486 -424 399 -201 857 -175
1227 70 145 97 311 293 385 457 56 124 110 382 110 522 0 41 -2 45 -14 33 -7
-8 -40 -73 -72 -144 -72 -161 -113 -223 -205 -320 -98 -103 -199 -178 -322
-236 -155 -74 -243 -94 -412 -94 -131 0 -147 2 -245 33 -185 58 -292 123 -412
249 -79 83 -152 196 -190 292 -18 47 -22 82 -26 240 -3 114 0 214 7 259 32
208 271 490 506 597 90 42 174 54 370 54 207 0 261 -10 388 -68 238 -110 408
-289 547 -575 72 -147 80 -152 80 -45 0 106 -65 348 -125 468 -72 142 -204
297 -340 399 -100 75 -270 157 -390 187 -129 32 -420 43 -525 19z"/>
<path d="M10255 5663 c-1214 -13 -2474 -125 -3285 -293 -347 -71 -338 -78 167
-135 726 -82 1035 -99 1758 -99 1042 1 2057 57 2880 160 323 40 1014 164 1092
195 l28 12 -35 8 c-93 20 -735 92 -1110 124 -185 16 -925 36 -1160 32 -69 -1
-219 -3 -335 -4z"/>
<path d="M7965 3536 c-301 -53 -564 -209 -732 -437 -87 -118 -172 -302 -214
-464 -22 -85 -37 -273 -25 -321 7 -25 13 -14 59 102 67 167 131 273 233 382
144 155 308 252 504 301 220 54 422 30 633 -75 192 -96 355 -271 435 -466 24
-58 26 -78 30 -248 6 -279 -11 -356 -114 -511 -115 -173 -298 -311 -504 -378
-83 -27 -258 -37 -380 -21 -239 31 -418 117 -575 276 -88 90 -155 189 -244
359 -65 125 -77 143 -87 133 -9 -10 33 -282 56 -368 61 -220 232 -456 429
-589 86 -58 229 -126 346 -164 l100 -32 245 0 c227 1 251 2 320 24 104 32 322
146 422 222 207 157 362 367 432 586 20 65 76 334 76 368 0 8 35 5 325 -35
788 -108 1526 -108 2305 1 376 52 896 172 964 222 18 13 16 15 -30 30 -183 59
-578 135 -833 159 -84 8 -344 13 -776 13 -539 0 -685 -3 -855 -18 -235 -20
-496 -56 -667 -92 -318 -67 -433 -88 -439 -83 -3 4 -17 60 -30 125 -13 65 -35
149 -49 186 -159 423 -527 737 -950 811 -106 19 -308 19 -410 2z"/>
<path d="M4120 2400 c-1380 -70 -1887 -111 -2497 -201 -357 -52 -832 -146
-856 -169 -11 -10 17 -15 273 -44 525 -61 982 -101 1340 -117 298 -13 1293 -7
1655 11 702 33 1329 83 1790 140 325 41 900 145 1040 188 69 21 81 45 25 50
-19 2 -181 18 -360 37 -508 53 -661 66 -1080 90 -319 19 -1087 27 -1330 15z"/>
</g>
</svg>
